<svg width="32" height="32" viewBox="0 0 32 32" fill="none" xmlns="http://www.w3.org/2000/svg">
<path d="M12.732 27.6666C13.9846 27.6666 15 26.6512 15 25.3986C15 24.1461 13.9846 23.1306 12.732 23.1306C11.4794 23.1306 10.464 24.1461 10.464 25.3986C10.464 26.6512 11.4794 27.6666 12.732 27.6666Z" stroke="black" stroke-width="1.5" stroke-linecap="round" stroke-linejoin="round"/>
<path d="M22.6133 27.6666C23.8659 27.6666 24.8813 26.6512 24.8813 25.3986C24.8813 24.1461 23.8659 23.1306 22.6133 23.1306C21.3608 23.1306 20.3453 24.1461 20.3453 25.3986C20.3453 26.6512 21.3608 27.6666 22.6133 27.6666Z" stroke="black" stroke-width="1.5" stroke-linecap="round" stroke-linejoin="round"/>
<path d="M7.47471 7.40667L10.1547 15.892C10.5667 17.196 10.772 17.848 11.168 18.3307C11.5147 18.7573 11.9667 19.0867 12.4774 19.2907C13.0574 19.5213 13.74 19.5213 15.108 19.5213H20.248C21.616 19.5213 22.2987 19.5213 22.8774 19.2907C23.3894 19.0867 23.84 18.7573 24.188 18.3307C24.5827 17.848 24.788 17.196 25.2014 15.892L25.7467 14.164L26.0667 13.1427L26.508 11.7427C26.6655 11.2433 26.7032 10.7139 26.6179 10.1973C26.5327 9.68073 26.327 9.19148 26.0174 8.76922C25.7079 8.34695 25.3032 8.00354 24.8362 7.76682C24.3692 7.53009 23.853 7.40671 23.3294 7.40667H7.47471ZM7.47471 7.40667L7.46004 7.35733C7.40374 7.16874 7.34148 6.98198 7.27337 6.79733C7.00344 6.11405 6.54569 5.52109 5.95301 5.08697C5.36033 4.65284 4.65692 4.39526 3.92404 4.344C3.78671 4.33333 3.63604 4.33333 3.33337 4.33333" stroke="black" stroke-width="1.5" stroke-linecap="round" stroke-linejoin="round"/>
</svg>
